<?xml version="1.0" encoding="UTF-8"?>
<svg xmlns="http://www.w3.org/2000/svg"
    xmlns:xlink="http://www.w3.org/1999/xlink" width="22px" height="22px" viewBox="0 0 22 22" version="1.1">
    <g id="surface1">
         <path stroke="none" fill-rule="nonzero" fill="currentColor" fill-opacity="1" d="M 18.304688 2.792969 C 18.246094 2.820312 17.671875 3.363281 17.027344 4.003906 L 15.863281 5.167969 L 15.308594 4.953125 C 14.417969 4.597656 13.566406 4.375 12.570312 4.222656 C 11.777344 4.109375 10.113281 4.121094 9.285156 4.25 C 7.097656 4.585938 5.164062 5.457031 3.335938 6.929688 C 2.753906 7.394531 1.65625 8.503906 1.1875 9.085938 C 0.679688 9.726562 0.0507812 10.667969 0.015625 10.847656 C -0.03125 11.109375 0.0351562 11.28125 0.386719 11.808594 C 1.417969 13.367188 2.894531 14.855469 4.382812 15.835938 C 4.632812 15.996094 4.84375 16.132812 4.851562 16.144531 C 4.863281 16.152344 4.40625 16.628906 3.835938 17.199219 C 2.949219 18.089844 2.796875 18.261719 2.773438 18.402344 C 2.722656 18.660156 2.785156 18.863281 2.960938 19.039062 C 3.136719 19.214844 3.339844 19.277344 3.597656 19.226562 C 3.742188 19.203125 4.570312 18.386719 11.464844 11.503906 C 17.125 5.84375 19.175781 3.765625 19.210938 3.65625 C 19.304688 3.367188 19.203125 3.058594 18.941406 2.867188 C 18.808594 2.765625 18.464844 2.726562 18.304688 2.792969 Z M 12.460938 5.609375 C 13.199219 5.71875 14.019531 5.933594 14.667969 6.1875 L 14.796875 6.234375 L 14.09375 6.9375 L 13.390625 7.644531 L 13.273438 7.5625 C 13.050781 7.398438 12.347656 7.089844 12.011719 6.996094 C 11.554688 6.875 10.53125 6.863281 10.082031 6.972656 C 9.292969 7.171875 8.671875 7.523438 8.09375 8.09375 C 7.523438 8.671875 7.171875 9.296875 6.972656 10.082031 C 6.859375 10.542969 6.871094 11.515625 6.996094 11.988281 C 7.09375 12.34375 7.378906 12.992188 7.558594 13.257812 L 7.644531 13.390625 L 6.773438 14.261719 L 5.898438 15.132812 L 5.492188 14.878906 C 4.066406 13.980469 2.617188 12.617188 1.71875 11.316406 L 1.5 11 L 1.714844 10.6875 C 2.476562 9.585938 3.796875 8.261719 4.921875 7.472656 C 6.433594 6.40625 8.21875 5.730469 9.996094 5.546875 C 10.527344 5.492188 11.917969 5.527344 12.460938 5.609375 Z M 11.609375 8.332031 C 11.875 8.398438 12.375 8.605469 12.375 8.648438 C 12.375 8.652344 11.539062 9.496094 10.511719 10.523438 L 8.644531 12.386719 L 8.53125 12.164062 C 8.375 11.851562 8.25 11.34375 8.25 11.003906 C 8.253906 9.246094 9.941406 7.90625 11.609375 8.332031 Z M 11.609375 8.332031 "/>
         <path stroke="none" fill-rule="nonzero" fill="currentColor" fill-opacity="1" d="M 17.777344 7.125 C 17.523438 7.378906 17.316406 7.605469 17.320312 7.625 C 17.320312 7.652344 17.488281 7.796875 17.695312 7.957031 C 18.574219 8.632812 19.734375 9.871094 20.363281 10.792969 L 20.5 11 L 20.324219 11.257812 C 19.585938 12.347656 18.300781 13.652344 17.164062 14.464844 C 15.222656 15.855469 12.957031 16.5625 10.699219 16.484375 C 9.996094 16.460938 9.773438 16.4375 9.054688 16.300781 L 8.671875 16.230469 L 8.117188 16.785156 C 7.71875 17.183594 7.578125 17.34375 7.621094 17.367188 C 7.742188 17.4375 8.761719 17.664062 9.34375 17.753906 C 10.148438 17.878906 11.785156 17.886719 12.570312 17.777344 C 15.339844 17.367188 17.652344 16.171875 19.765625 14.054688 C 20.523438 13.292969 21.015625 12.695312 21.570312 11.867188 C 22.125 11.042969 22.125 10.96875 21.621094 10.199219 C 21.140625 9.46875 20.484375 8.667969 19.789062 7.964844 C 19.199219 7.375 18.378906 6.660156 18.289062 6.660156 C 18.261719 6.660156 18.03125 6.867188 17.777344 7.125 Z M 17.777344 7.125 "/>
         <path stroke="none" fill-rule="nonzero" fill="currentColor" fill-opacity="1" d="M 14.335938 10.566406 L 13.742188 11.160156 L 13.6875 11.5 C 13.617188 11.894531 13.371094 12.417969 13.109375 12.730469 C 12.707031 13.21875 12.085938 13.582031 11.5 13.6875 L 11.160156 13.742188 L 10.554688 14.347656 C 10.222656 14.679688 9.964844 14.960938 9.976562 14.976562 C 10.027344 15.027344 10.6875 15.121094 11.003906 15.125 C 12.089844 15.128906 13.09375 14.703125 13.902344 13.898438 C 14.730469 13.070312 15.09375 12.199219 15.097656 11.042969 C 15.105469 10.503906 15.03125 9.96875 14.960938 9.96875 C 14.945312 9.96875 14.664062 10.234375 14.335938 10.566406 Z M 14.335938 10.566406 "/>
    </g>
</svg>
