<?xml version="1.0" encoding="UTF-8"?>
<svg xmlns="http://www.w3.org/2000/svg"
    xmlns:xlink="http://www.w3.org/1999/xlink" width="22px" height="22px" viewBox="0 0 22 22" version="1.1">
    <g id="surface1">
        <path stroke="none" fill-rule="nonzero" fill="currentColor" fill-opacity="1" d="M 10.097656 4.152344 C 7.554688 4.390625 5.382812 5.28125 3.335938 6.929688 C 2.753906 7.394531 1.65625 8.503906 1.1875 9.085938 C 0.679688 9.726562 0.0507812 10.667969 0.015625 10.847656 C 0.00390625 10.929688 0.00390625 11.070312 0.015625 11.148438 C 0.0507812 11.332031 0.679688 12.273438 1.1875 12.914062 C 1.65625 13.496094 2.753906 14.605469 3.335938 15.070312 C 5.199219 16.570312 7.167969 17.441406 9.429688 17.777344 C 10.152344 17.878906 11.847656 17.878906 12.570312 17.777344 C 14.0625 17.558594 15.40625 17.113281 16.648438 16.425781 C 18.566406 15.375 20.308594 13.757812 21.570312 11.867188 C 22.128906 11.03125 22.128906 10.96875 21.570312 10.132812 C 21.019531 9.308594 20.527344 8.707031 19.765625 7.945312 C 17.703125 5.871094 15.382812 4.65625 12.71875 4.25 C 12.15625 4.164062 10.585938 4.109375 10.097656 4.152344 Z M 12.082031 5.5625 C 14.066406 5.773438 16.011719 6.601562 17.699219 7.945312 C 18.589844 8.65625 19.679688 9.8125 20.277344 10.671875 L 20.5 11 L 20.324219 11.257812 C 19.585938 12.347656 18.300781 13.652344 17.164062 14.464844 C 15.054688 15.976562 12.519531 16.6875 10.070312 16.457031 C 7.59375 16.21875 5.332031 15.125 3.335938 13.191406 C 2.789062 12.664062 2.085938 11.847656 1.722656 11.320312 L 1.5 11 L 1.714844 10.6875 C 2.136719 10.082031 2.519531 9.636719 3.238281 8.910156 C 4.28125 7.875 5.226562 7.183594 6.429688 6.582031 C 8.179688 5.707031 10.128906 5.355469 12.082031 5.5625 Z M 12.082031 5.5625 "/>
        <path stroke="none" fill-rule="nonzero" fill="currentColor" fill-opacity="1" d="M 10.28125 6.9375 C 9.417969 7.09375 8.714844 7.472656 8.078125 8.117188 C 7.523438 8.675781 7.167969 9.3125 6.972656 10.082031 C 6.871094 10.488281 6.871094 11.511719 6.972656 11.917969 C 7.167969 12.6875 7.523438 13.324219 8.078125 13.882812 C 8.839844 14.65625 9.734375 15.054688 10.804688 15.113281 C 11.996094 15.171875 13.035156 14.765625 13.902344 13.898438 C 14.488281 13.3125 14.828125 12.714844 15.027344 11.917969 C 15.128906 11.511719 15.128906 10.488281 15.027344 10.082031 C 14.917969 9.65625 14.71875 9.179688 14.488281 8.808594 C 14.222656 8.371094 13.605469 7.765625 13.152344 7.484375 C 12.3125 6.96875 11.242188 6.761719 10.28125 6.9375 Z M 11.582031 8.3125 C 12.507812 8.507812 13.335938 9.273438 13.632812 10.203125 C 13.765625 10.628906 13.765625 11.371094 13.632812 11.796875 C 13.363281 12.648438 12.648438 13.363281 11.796875 13.632812 C 11.550781 13.710938 11.394531 13.726562 10.976562 13.726562 C 10.53125 13.722656 10.421875 13.707031 10.148438 13.613281 C 9.699219 13.449219 9.394531 13.257812 9.046875 12.914062 C 7.984375 11.855469 7.992188 10.140625 9.066406 9.066406 C 9.734375 8.394531 10.65625 8.121094 11.582031 8.3125 Z M 11.582031 8.3125 "/>
    </g>
</svg>
